# xmcd
#
# Track frame offsets:
# 150
# 17189
# 31934
# 48944
# 57483
# 76614
# 93886
# 111352
# 126403
# 139184
# 155908
# 169721
# 184204
# 197569
#
# Disc length: 2937 seconds
#
#
# Revision: 0
# Processed by: cddbd v1.4PL0 Copyright (c) Steve Scherf et al.
# Submitted via: FreeRIP 2.12 
#
DISCID=bc0b770e
DTITLE=Cecilia Echenique - Chilena
DYEAR=1999
DGENRE=Balada
TTITLE0=Una Pena y un carino
TTITLE1=Los Pasajeros
TTITLE2=Valparaiso eterno (puerto esperanza)
TTITLE3=Si somos americanos
TTITLE4=Los momentos
TTITLE5=Sufrir
TTITLE6=Lo unico que tengo
TTITLE7=El corralero
TTITLE8=Que alegres son las obreras
TTITLE9=Pa mar adentro
TTITLE10=Yo vendo unos ojos negros
TTITLE11=El cautivo de Tiltil
TTITLE12=Rosa Colorada
TTITLE13=Gracias a la vida
EXTD=
EXTT0=
EXTT1=
EXTT2=
EXTT3=
EXTT4=
EXTT5=
EXTT6=
EXTT7=
EXTT8=
EXTT9=
EXTT10=
EXTT11=
EXTT12=
EXTT13=
PLAYORDER=
